<svg xmlns="http://www.w3.org/2000/svg" version="1.1" xmlns:xlink="http://www.w3.org/1999/xlink" viewBox="311 300 311.0039978027344 300" class="svg-animations "><svg viewBox="0 0 136.98599243164062 139" width="60" height="60" style="fill: rgb(255, 255, 255);" x="225.08699798583984" y="120"><svg width="137" height="134" viewBox="0 0 137 134" xmlns="http://www.w3.org/2000/svg">
	<path d="M53.5663 34.6963C30.6231 39.316 13.2852 59.5908 13.2852 83.8273C13.2852 111.464 35.8162 133.959 63.5267 133.959C91.2372 133.959 113.755 111.464 113.755 83.8273C113.755 70.681 108.658 58.7135 100.332 49.7619C103.533 55.2178 105.388 61.5648 105.388 68.3505C105.388 88.6801 88.8742 105.158 68.5001 105.158C48.1259 105.158 31.6123 88.6801 31.6123 68.3505C31.6123 53.3261 40.6384 40.4127 53.5663 34.6963Z"/>
	<path d="M68.5 0C30.6643 0 0 30.5972 0 68.3503C0 84.3343 5.50913 99.0298 14.7276 110.668C10.3039 102.704 7.78971 93.5601 7.78971 83.8271C7.78971 53.1613 32.7937 28.212 63.5267 28.212C94.2596 28.212 119.25 53.1613 119.25 83.8271C119.25 105.911 106.281 125.021 87.5415 134C116.104 125.761 136.986 99.4959 136.986 68.3503C137 30.5972 106.336 0 68.5 0Z"/>
	</svg></svg><svg style="fill: rgb(255, 255, 255);" x="35.91699981689453" y="133.9650001525879"><path d="M14.18 18.10Q14.18 19.89 13.49 21.34Q12.80 22.80 11.63 23.86Q10.46 24.91 8.88 25.49Q7.30 26.06 5.47 26.06L5.47 26.06Q4.19 26.06 2.91 25.38Q1.63 24.69 0.45 23.18L0.45 23.18L2.82 18.54Q3.04 18.96 3.49 19.39Q3.94 19.82 4.50 20.14Q5.06 20.46 5.62 20.67Q6.18 20.88 6.62 20.88L6.62 20.88Q7.01 20.88 7.42 20.75Q7.84 20.62 8.19 20.37Q8.54 20.11 8.75 19.78Q8.96 19.44 8.96 18.99L8.96 18.99Q8.96 18.22 8.46 17.57Q7.97 16.91 7.23 16.32Q6.50 15.73 5.63 15.12Q4.77 14.51 4.05 13.84Q3.33 13.17 2.82 12.34Q2.30 11.50 2.30 10.48L2.30 10.48Q2.30 8.82 3.30 7.38Q4.29 5.94 5.78 4.90Q7.26 3.86 9.02 3.25Q10.78 2.64 12.35 2.64L12.35 2.64Q13.22 2.64 13.98 2.85Q14.75 3.06 15.31 3.52Q15.87 3.98 16.21 4.69Q16.54 5.39 16.54 6.45L16.54 6.45Q16.54 6.90 16.46 7.34Q16.38 7.79 16.32 8.30L16.32 8.30L11.68 9.65Q11.74 9.39 11.79 9.14Q11.84 8.88 11.84 8.62L11.84 8.62Q11.84 7.66 11.50 7.23Q11.17 6.80 10.62 6.80L10.62 6.80Q10.37 6.80 10 6.99Q9.63 7.18 9.26 7.49Q8.90 7.79 8.64 8.21Q8.38 8.62 8.38 9.10L8.38 9.10Q8.38 9.87 8.82 10.38Q9.25 10.90 9.89 11.34Q10.53 11.79 11.28 12.26Q12.03 12.72 12.67 13.46Q13.31 14.19 13.74 15.30Q14.18 16.40 14.18 18.10L14.18 18.10ZM19.20 24.94L13.66 26.03Q14.62 21.71 15.49 17.58L15.49 17.58Q15.84 15.86 16.22 13.94Q16.61 12.02 16.96 10.16Q17.31 8.30 17.63 6.58Q17.95 4.85 18.18 3.41L18.18 3.41Q19.10 3.12 20 2.91Q20.90 2.70 21.84 2.54Q22.78 2.38 23.62 2.38L23.62 2.38Q25.06 2.38 26.03 2.86Q27.01 3.34 27.62 4.16Q28.22 4.98 28.48 6.06Q28.74 7.15 28.74 8.40L28.74 8.40Q28.74 10.19 28.08 11.86Q27.42 13.52 26.32 14.82Q25.22 16.11 23.79 16.88Q22.37 17.65 20.83 17.65L20.83 17.65L20.48 17.65Q20.22 18.74 20 20.02Q19.78 21.30 19.62 22.38L19.62 22.38Q19.39 23.66 19.20 24.94L19.20 24.94ZM22.59 6.26Q22.24 8.37 21.89 10.26Q21.54 12.14 21.12 14.29L21.12 14.29Q21.63 14.16 22.19 13.70Q22.75 13.23 23.23 12.48Q23.71 11.73 24 10.74Q24.29 9.74 24.29 8.66L24.29 8.66Q24.29 7.47 23.76 6.86Q23.23 6.26 22.59 6.26L22.59 6.26ZM43.81 8.69Q43.81 11.31 43.25 13.63Q42.69 15.95 41.76 17.89Q40.83 19.82 39.60 21.34Q38.37 22.86 37.02 23.94Q35.68 25.01 34.30 25.57Q32.93 26.13 31.68 26.13L31.68 26.13Q30.62 26.13 29.76 25.73Q28.90 25.33 28.26 24.54Q27.62 23.76 27.25 22.53Q26.88 21.30 26.88 19.57L26.88 19.57Q26.88 17.78 27.33 15.79Q27.78 13.81 28.54 11.86Q29.31 9.90 30.43 8.14Q31.55 6.38 32.90 5.02Q34.24 3.66 35.78 2.86Q37.31 2.06 38.98 2.06L38.98 2.06Q40.42 2.06 41.36 2.66Q42.30 3.25 42.83 4.19Q43.36 5.14 43.58 6.32Q43.81 7.50 43.81 8.69L43.81 8.69ZM31.65 18.74Q31.65 19.09 31.78 19.47Q31.90 19.86 32.13 20.14Q32.35 20.43 32.69 20.64Q33.02 20.85 33.41 20.85L33.41 20.85Q34.85 20.85 35.97 19.86Q37.09 18.86 37.82 17.42Q38.56 15.98 38.96 14.35Q39.36 12.72 39.36 11.38L39.36 11.38Q39.36 10.99 39.31 10.54Q39.26 10.10 39.12 9.71Q38.98 9.33 38.67 9.06Q38.37 8.78 37.86 8.78L37.86 8.78Q36.83 8.78 35.97 9.30Q35.10 9.81 34.42 10.66Q33.73 11.50 33.22 12.58Q32.70 13.65 32.34 14.75Q31.97 15.86 31.81 16.91Q31.65 17.97 31.65 18.74L31.65 18.74ZM46.98 24.69L41.79 26.03Q42.66 21.78 43.46 17.71L43.46 17.71Q43.74 15.98 44.10 14.11Q44.45 12.24 44.75 10.40Q45.06 8.56 45.33 6.85Q45.60 5.14 45.76 3.73L45.76 3.73Q47.58 3.15 49.70 2.88Q51.81 2.61 53.89 2.61L53.89 2.61Q55.14 2.61 55.95 2.90Q56.77 3.18 57.23 3.71Q57.70 4.24 57.89 4.94Q58.08 5.65 58.08 6.51L58.08 6.51Q58.08 7.79 57.63 9.02Q57.18 10.26 56.43 11.36Q55.68 12.46 54.70 13.38Q53.73 14.29 52.61 14.86L52.61 14.86Q53.18 16.14 53.84 17.66Q54.50 19.18 55.07 20.56L55.07 20.56Q55.71 22.16 56.38 23.76L56.38 23.76L51.42 25.49Q50.78 23.44 50.27 21.65L50.27 21.65Q50.05 20.91 49.82 20.13Q49.60 19.34 49.41 18.64Q49.22 17.94 49.09 17.38Q48.96 16.82 48.93 16.46L48.93 16.46L48.51 16.59Q48.32 17.62 48.05 18.99Q47.78 20.37 47.55 21.65L47.55 21.65Q47.26 23.15 46.98 24.69L46.98 24.69ZM50.34 7.06L49.31 12.14Q49.92 12.08 50.80 11.63Q51.68 11.18 52.48 10.56Q53.28 9.94 53.86 9.26Q54.43 8.59 54.43 8.08L54.43 8.08Q54.43 7.73 54.21 7.52Q53.98 7.31 53.58 7.20Q53.18 7.09 52.70 7.06Q52.22 7.02 51.71 7.02L51.71 7.02Q51.36 7.02 50.99 7.04Q50.62 7.06 50.34 7.06L50.34 7.06ZM64.51 25.14L58.75 26.03Q59.49 22.51 60.16 19.09L60.16 19.09Q60.45 17.65 60.74 16.08Q61.02 14.51 61.30 12.99Q61.57 11.47 61.78 10.05Q61.98 8.62 62.14 7.44L62.14 7.44Q61.41 7.34 60.66 7.38Q59.90 7.41 59.17 7.18L59.17 7.18Q59.20 6.67 59.20 6Q59.20 5.33 59.23 4.66L59.23 4.66Q59.26 3.92 59.30 3.09L59.30 3.09Q60.13 3.15 60.96 3.18Q61.79 3.22 62.62 3.22L62.62 3.22Q64.26 3.22 65.78 3.14Q67.30 3.06 68.59 2.94Q69.89 2.83 71.14 2.67L71.14 2.67L70.78 4.40Q70.62 5.14 70.48 5.90Q70.34 6.67 70.21 7.22L70.21 7.22Q69.50 7.41 68.78 7.49Q68.06 7.57 67.36 7.70L67.36 7.70Q67.14 8.78 66.88 10.11Q66.62 11.44 66.38 12.86Q66.14 14.29 65.92 15.76Q65.70 17.23 65.47 18.58L65.47 18.58Q64.96 21.74 64.51 25.14L64.51 25.14ZM81.63 18.10Q81.63 19.89 80.94 21.34Q80.26 22.80 79.09 23.86Q77.92 24.91 76.34 25.49Q74.75 26.06 72.93 26.06L72.93 26.06Q71.65 26.06 70.37 25.38Q69.09 24.69 67.90 23.18L67.90 23.18L70.27 18.54Q70.50 18.96 70.94 19.39Q71.39 19.82 71.95 20.14Q72.51 20.46 73.07 20.67Q73.63 20.88 74.08 20.88L74.08 20.88Q74.46 20.88 74.88 20.75Q75.30 20.62 75.65 20.37Q76 20.11 76.21 19.78Q76.42 19.44 76.42 18.99L76.42 18.99Q76.42 18.22 75.92 17.57Q75.42 16.91 74.69 16.32Q73.95 15.73 73.09 15.12Q72.22 14.51 71.50 13.84Q70.78 13.17 70.27 12.34Q69.76 11.50 69.76 10.48L69.76 10.48Q69.76 8.82 70.75 7.38Q71.74 5.94 73.23 4.90Q74.72 3.86 76.48 3.25Q78.24 2.64 79.81 2.64L79.81 2.64Q80.67 2.64 81.44 2.85Q82.21 3.06 82.77 3.52Q83.33 3.98 83.66 4.69Q84 5.39 84 6.45L84 6.45Q84 6.90 83.92 7.34Q83.84 7.79 83.78 8.30L83.78 8.30L79.14 9.65Q79.20 9.39 79.25 9.14Q79.30 8.88 79.30 8.62L79.30 8.62Q79.30 7.66 78.96 7.23Q78.62 6.80 78.08 6.80L78.08 6.80Q77.82 6.80 77.46 6.99Q77.09 7.18 76.72 7.49Q76.35 7.79 76.10 8.21Q75.84 8.62 75.84 9.10L75.84 9.10Q75.84 9.87 76.27 10.38Q76.70 10.90 77.34 11.34Q77.98 11.79 78.74 12.26Q79.49 12.72 80.13 13.46Q80.77 14.19 81.20 15.30Q81.63 16.40 81.63 18.10L81.63 18.10ZM99.23 25.36Q98.43 25.49 97.47 25.65Q96.51 25.81 95.74 25.94L95.74 25.94Q95.87 24.88 96 23.86L96 23.86Q96.10 22.96 96.18 22.06Q96.26 21.17 96.32 20.53L96.32 20.53L93.54 20.53L92.26 25.14Q91.55 25.23 90.59 25.34Q89.63 25.46 88.80 25.55L88.80 25.55Q87.78 25.68 86.78 25.81L86.78 25.81Q88.06 21.55 89.31 17.42L89.31 17.42Q89.82 15.70 90.38 13.81Q90.94 11.92 91.50 10.05Q92.06 8.18 92.58 6.45Q93.09 4.72 93.47 3.28L93.47 3.28Q95.65 3.12 97.90 2.90Q100.16 2.67 102.30 2.29L102.30 2.29Q102.21 3.31 102.10 4.83Q101.98 6.35 101.89 8.14Q101.79 9.94 101.70 11.89Q101.60 13.84 101.50 15.73L101.50 15.73Q101.34 20.14 101.15 25.10L101.15 25.10Q100.19 25.26 99.23 25.36L99.23 25.36ZM96.29 9.30L94.30 17.33Q94.43 17.33 94.77 17.31Q95.10 17.30 95.47 17.28Q95.84 17.26 96.16 17.25Q96.48 17.23 96.61 17.20L96.61 17.20Q96.61 17.01 96.66 16.54Q96.70 16.08 96.75 15.49Q96.80 14.90 96.86 14.19Q96.93 13.49 96.99 12.82L96.99 12.82Q97.12 11.18 97.31 9.30L97.31 9.30L97.50 6.51L97.02 6.54L96.29 9.30ZM106.75 24.94L101.22 26.03Q102.18 21.71 103.04 17.58L103.04 17.58Q103.39 15.86 103.78 13.94Q104.16 12.02 104.51 10.16Q104.86 8.30 105.18 6.58Q105.50 4.85 105.73 3.41L105.73 3.41Q106.66 3.12 107.55 2.91Q108.45 2.70 109.39 2.54Q110.34 2.38 111.17 2.38L111.17 2.38Q112.61 2.38 113.58 2.86Q114.56 3.34 115.17 4.16Q115.78 4.98 116.03 6.06Q116.29 7.15 116.29 8.40L116.29 8.40Q116.29 10.19 115.63 11.86Q114.98 13.52 113.87 14.82Q112.77 16.11 111.34 16.88Q109.92 17.65 108.38 17.65L108.38 17.65L108.03 17.65Q107.78 18.74 107.55 20.02Q107.33 21.30 107.17 22.38L107.17 22.38Q106.94 23.66 106.75 24.94L106.75 24.94ZM110.14 6.26Q109.79 8.37 109.44 10.26Q109.09 12.14 108.67 14.29L108.67 14.29Q109.18 14.16 109.74 13.70Q110.30 13.23 110.78 12.48Q111.26 11.73 111.55 10.74Q111.84 9.74 111.84 8.66L111.84 8.66Q111.84 7.47 111.31 6.86Q110.78 6.26 110.14 6.26L110.14 6.26ZM118.88 24.94L113.34 26.03Q114.30 21.71 115.17 17.58L115.17 17.58Q115.52 15.86 115.90 13.94Q116.29 12.02 116.64 10.16Q116.99 8.30 117.31 6.58Q117.63 4.85 117.86 3.41L117.86 3.41Q118.78 3.12 119.68 2.91Q120.58 2.70 121.52 2.54Q122.46 2.38 123.30 2.38L123.30 2.38Q124.74 2.38 125.71 2.86Q126.69 3.34 127.30 4.16Q127.90 4.98 128.16 6.06Q128.42 7.15 128.42 8.40L128.42 8.40Q128.42 10.19 127.76 11.86Q127.10 13.52 126 14.82Q124.90 16.11 123.47 16.88Q122.05 17.65 120.51 17.65L120.51 17.65L120.16 17.65Q119.90 18.74 119.68 20.02Q119.46 21.30 119.30 22.38L119.30 22.38Q119.07 23.66 118.88 24.94L118.88 24.94ZM122.27 6.26Q121.92 8.37 121.57 10.26Q121.22 12.14 120.80 14.29L120.80 14.29Q121.31 14.16 121.87 13.70Q122.43 13.23 122.91 12.48Q123.39 11.73 123.68 10.74Q123.97 9.74 123.97 8.66L123.97 8.66Q123.97 7.47 123.44 6.86Q122.91 6.26 122.27 6.26L122.27 6.26ZM137.34 25.36Q136.54 25.49 135.58 25.65Q134.62 25.81 133.86 25.94L133.86 25.94Q133.98 24.88 134.11 23.86L134.11 23.86Q134.21 22.96 134.29 22.06Q134.37 21.17 134.43 20.53L134.43 20.53L131.65 20.53L130.37 25.14Q129.66 25.23 128.70 25.34Q127.74 25.46 126.91 25.55L126.91 25.55Q125.89 25.68 124.90 25.81L124.90 25.81Q126.18 21.55 127.42 17.42L127.42 17.42Q127.94 15.70 128.50 13.81Q129.06 11.92 129.62 10.05Q130.18 8.18 130.69 6.45Q131.20 4.72 131.58 3.28L131.58 3.28Q133.76 3.12 136.02 2.90Q138.27 2.67 140.42 2.29L140.42 2.29Q140.32 3.31 140.21 4.83Q140.10 6.35 140 8.14Q139.90 9.94 139.81 11.89Q139.71 13.84 139.62 15.73L139.62 15.73Q139.46 20.14 139.26 25.10L139.26 25.10Q138.30 25.26 137.34 25.36L137.34 25.36ZM134.40 9.30L132.42 17.33Q132.54 17.33 132.88 17.31Q133.22 17.30 133.58 17.28Q133.95 17.26 134.27 17.25Q134.59 17.23 134.72 17.20L134.72 17.20Q134.72 17.01 134.77 16.54Q134.82 16.08 134.86 15.49Q134.91 14.90 134.98 14.19Q135.04 13.49 135.10 12.82L135.10 12.82Q135.23 11.18 135.42 9.30L135.42 9.30L135.62 6.51L135.14 6.54L134.40 9.30ZM144.74 24.69L139.55 26.03Q140.42 21.78 141.22 17.71L141.22 17.71Q141.50 15.98 141.86 14.11Q142.21 12.24 142.51 10.40Q142.82 8.56 143.09 6.85Q143.36 5.14 143.52 3.73L143.52 3.73Q145.34 3.15 147.46 2.88Q149.57 2.61 151.65 2.61L151.65 2.61Q152.90 2.61 153.71 2.90Q154.53 3.18 154.99 3.71Q155.46 4.24 155.65 4.94Q155.84 5.65 155.84 6.51L155.84 6.51Q155.84 7.79 155.39 9.02Q154.94 10.26 154.19 11.36Q153.44 12.46 152.46 13.38Q151.49 14.29 150.37 14.86L150.37 14.86Q150.94 16.14 151.60 17.66Q152.26 19.18 152.83 20.56L152.83 20.56Q153.47 22.16 154.14 23.76L154.14 23.76L149.18 25.49Q148.54 23.44 148.03 21.65L148.03 21.65Q147.81 20.91 147.58 20.13Q147.36 19.34 147.17 18.64Q146.98 17.94 146.85 17.38Q146.72 16.82 146.69 16.46L146.69 16.46L146.27 16.59Q146.08 17.62 145.81 18.99Q145.54 20.37 145.31 21.65L145.31 21.65Q145.02 23.15 144.74 24.69L144.74 24.69ZM148.10 7.06L147.07 12.14Q147.68 12.08 148.56 11.63Q149.44 11.18 150.24 10.56Q151.04 9.94 151.62 9.26Q152.19 8.59 152.19 8.08L152.19 8.08Q152.19 7.73 151.97 7.52Q151.74 7.31 151.34 7.20Q150.94 7.09 150.46 7.06Q149.98 7.02 149.47 7.02L149.47 7.02Q149.12 7.02 148.75 7.04Q148.38 7.06 148.10 7.06L148.10 7.06ZM164.22 24.43L153.89 26.03L158.08 3.28L168.19 2.42Q167.97 3.12 167.81 3.86L167.81 3.86Q167.65 4.46 167.50 5.12Q167.36 5.78 167.26 6.29L167.26 6.29Q166.94 6.32 166.35 6.34Q165.76 6.35 165.09 6.37Q164.42 6.38 163.73 6.38Q163.04 6.38 162.53 6.38L162.53 6.38L161.41 12.11Q162.40 12.05 163.26 12.02L163.26 12.02Q163.97 11.98 164.70 11.98Q165.44 11.98 165.79 11.95L165.79 11.95Q165.66 12.85 165.55 13.71Q165.44 14.58 165.28 15.47L165.28 15.47Q164.96 15.50 164.24 15.52Q163.52 15.54 162.78 15.57L162.78 15.57Q161.95 15.60 160.96 15.63L160.96 15.63L159.87 21.52L164.54 20.78L164.22 24.43ZM173.38 24.98Q172.38 24.98 171.28 25.04Q170.18 25.10 169.06 25.23Q167.94 25.36 166.86 25.57Q165.79 25.78 164.93 26.06L164.93 26.06Q165.12 24.62 165.38 22.86Q165.63 21.10 165.97 19.22Q166.30 17.33 166.64 15.41Q166.98 13.49 167.33 11.73L167.33 11.73Q168.13 7.54 169.02 3.18L169.02 3.18L174.62 2.45Q173.76 6.16 172.96 9.68L172.96 9.68Q172.61 11.18 172.26 12.80Q171.90 14.42 171.58 15.95Q171.26 17.49 171.01 18.93Q170.75 20.37 170.59 21.49L170.59 21.49Q171.39 21.42 172.30 21.41Q173.22 21.39 173.92 21.39L173.92 21.39Q173.95 22 174.02 22.59Q174.08 23.18 174.16 23.66Q174.24 24.14 174.29 24.51Q174.34 24.88 174.37 25.01L174.37 25.01Q174.11 25.01 173.87 24.99Q173.63 24.98 173.38 24.98L173.38 24.98Z"/></svg><text fill="#ffffff" font-family="Helvetica" font-size="16px" x="75.10668522119522" y="180.710129737854"><tspan dy="0" x="75.10668522119522">A great choice</tspan></text></svg>